# xmcd
#
# Track frame offsets:
#	150
#	12678
#	26107
#	40849
#	53733
#	65185
#	79157
#	87598
#	100935
#	113994
#	128722
#	141640
#	156583
#	168160
#
# Disc length: 2395 seconds
#
# Revision: 0
# Processed by: cddbd v1.5.2PL0 Copyright (c) Steve Scherf et al.
# Submitted via: EasyCDDAExtractor 12.0.1.1
#
DISCID=cd09590e
DTITLE=Various Artist - Lady Sings The Blues - CD 05-05
DYEAR=2005
DGENRE=Blues
TTITLE0=Della reese - Birth Of The Blues
TTITLE1=Clara Smith - For Sale
TTITLE2=Gladys Knight - Guess Who
TTITLE3=Ella Fitzgerald - I Got It Band And That Ain't Good
TTITLE4=Lucky Millender - I'm Waiting Just For You
TTITLE5=Mildred Bailey - Lover Come Back To Me
TTITLE6=Dinah Washington - Mean And Evil Blues
TTITLE7=Bessie Smith - Nobody Knwos You When You're Down And Out
TTITLE8=Ida Cox - One Hour Mama
TTITLE9=Ester Philips - Release me
TTITLE10=Fay Adams - Shake A Hand
TTITLE11=Lena Horne - Stormy Weather
TTITLE12=Sarah Vaughan - Trouble Is A MAn
TTITLE13=Linda Baker - Trying
EXTD=
EXTT0=
EXTT1=
EXTT2=
EXTT3=
EXTT4=
EXTT5=
EXTT6=
EXTT7=
EXTT8=
EXTT9=
EXTT10=
EXTT11=
EXTT12=
EXTT13=
PLAYORDER=
